<svg xmlns="http://www.w3.org/2000/svg">
<symbol id="icon-user" viewBox="0 0 24 24">
    <path
        stroke-linecap="round"
        stroke-linejoin="round"
        d="M15.75 6a3.75 3.75 0 1 1-7.5 0 3.75 3.75 0 0 1 7.5 0ZM4.501 20.118a7.5 7.5 0 0 1 14.998 0A17.933 17.933 0 0 1 12 21.75c-2.676 0-5.216-.584-7.499-1.632Z"
     />
</symbol>

<symbol id="icon-like" viewBox="0 0 24 24">
    <path
        stroke-linecap="round"
        stroke-linejoin="round"
         d="M21 8.25c0-2.485-2.099-4.5-4.688-4.5-1.935 0-3.597 1.126-4.312 2.733-.715-1.607-2.377-2.733-4.313-2.733C5.1 3.75 3 5.765 3 8.25c0 7.22 9 12 9 12s9-4.78 9-12Z"
    />
</symbol>

<symbol id="icon-cart" viewBox="0 0 24 24">
    <path
        stroke-linecap="round"
        stroke-linejoin="round"
        d="M2.25 3h1.386c.51 0 .955.343 1.087.835l.383 1.437M7.5 14.25a3 3 0 0 0-3 3h15.75m-12.75-3h11.218c1.121-2.3 2.1-4.684 2.924-7.138a60.114 60.114 0 0 0-16.536-1.84M7.5 14.25 5.106 5.272M6 20.25a.75.75 0 1 1-1.5 0 .75.75 0 0 1 1.5 0Zm12.75 0a.75.75 0 1 1-1.5 0 .75.75 0 0 1 1.5 0Z"
    />
</symbol>

<symbol id="icon-chevron" viewBox="0 0 24 24">
    <path
        stroke-linecap="round"
        stroke-linejoin="round"
         d="m19.5 8.25-7.5 7.5-7.5-7.5"
    />
</symbol>

<symbol id="icon-ticket" viewBox="0 0 24 24">
    <path
        stroke-linecap="round"
         stroke-linejoin="round"
         d="M2.25 18.75a60.07 60.07 0 0 1 15.797 2.101c.727.198 1.453-.342 1.453-1.096V18.75M3.75 4.5v.75A.75.75 0 0 1 3 6h-.75m0 0v-.375c0-.621.504-1.125 1.125-1.125H20.25M2.25 6v9m18-10.5v.75c0 .414.336.75.75.75h.75m-1.5-1.5h.375c.621 0 1.125.504 1.125 1.125v9.75c0 .621-.504 1.125-1.125 1.125h-.375m1.5-1.5H21a.75.75 0 0 0-.75.75v.75m0 0H3.75m0 0h-.375a1.125 1.125 0 0 1-1.125-1.125V15m1.5 1.5v-.75A.75.75 0 0 0 3 15h-.75M15 10.5a3 3 0 1 1-6 0 3 3 0 0 1 6 0Zm3 0h.008v.008H18V10.5Zm-12 0h.008v.008H6V10.5Z"
    />
</symbol>

<symbol id="icon-search" viewBox="0 0 30 30">
    <path
        d="M 13 3 C 7.4889971 3 3 7.4889971 3 13 C 3 18.511003 7.4889971 23 13 23 C 15.396508 23 17.597385 22.148986 19.322266 20.736328 L 25.292969 26.707031 A 1.0001 1.0001 0 1 0 26.707031 25.292969 L 20.736328 19.322266 C 22.148986 17.597385 23 15.396508 23 13 C 23 7.4889971 18.511003 3 13 3 z M 13 5 C 17.430123 5 21 8.5698774 21 13 C 21 17.430123 17.430123 21 13 21 C 8.5698774 21 5 17.430123 5 13 C 5 8.5698774 8.5698774 5 13 5 z"
    ></path>
</symbol>

<symbol id="icon-facebook" viewBox="0 0 50 50">
    <path
         d="M 25 3 C 12.861562 3 3 12.861562 3 25 C 3 36.019135 11.127533 45.138355 21.712891 46.728516 L 22.861328 46.902344 L 22.861328 29.566406 L 17.664062 29.566406 L 17.664062 26.046875 L 22.861328 26.046875 L 22.861328 21.373047 C 22.861328 18.494965 23.551973 16.599417 24.695312 15.410156 C 25.838652 14.220896 27.528004 13.621094 29.878906 13.621094 C 31.758714 13.621094 32.490022 13.734993 33.185547 13.820312 L 33.185547 16.701172 L 30.738281 16.701172 C 29.349697 16.701172 28.210449 17.475903 27.619141 18.507812 C 27.027832 19.539724 26.84375 20.771816 26.84375 22.027344 L 26.84375 26.044922 L 32.966797 26.044922 L 32.421875 29.564453 L 26.84375 29.564453 L 26.84375 46.929688 L 27.978516 46.775391 C 38.71434 45.319366 47 36.126845 47 25 C 47 12.861562 37.138438 3 25 3 z M 25 5 C 36.057562 5 45 13.942438 45 25 C 45 34.729791 38.035799 42.731796 28.84375 44.533203 L 28.84375 31.564453 L 34.136719 31.564453 L 35.298828 24.044922 L 28.84375 24.044922 L 28.84375 22.027344 C 28.84375 20.989871 29.033574 20.060293 29.353516 19.501953 C 29.673457 18.943614 29.981865 18.701172 30.738281 18.701172 L 35.185547 18.701172 L 35.185547 12.009766 L 34.318359 11.892578 C 33.718567 11.811418 32.349197 11.621094 29.878906 11.621094 C 27.175808 11.621094 24.855567 12.357448 23.253906 14.023438 C 21.652246 15.689426 20.861328 18.170128 20.861328 21.373047 L 20.861328 24.046875 L 15.664062 24.046875 L 15.664062 31.566406 L 20.861328 31.566406 L 20.861328 44.470703 C 11.816995 42.554813 5 34.624447 5 25 C 5 13.942438 13.942438 5 25 5 z"
    ></path>
</symbol>

<symbol id="icon-tiktok" viewBox="0 0 50 50">
    <path
         d="M 24.402344 9 C 17.800781 9 11.601563 9.5 8.300781 10.199219 C 6.101563 10.699219 4.199219 12.199219 3.800781 14.5 C 3.402344 16.898438 3 20.5 3 25 C 3 29.5 3.398438 33 3.898438 35.5 C 4.300781 37.699219 6.199219 39.300781 8.398438 39.800781 C 11.902344 40.5 17.898438 41 24.5 41 C 31.101563 41 37.097656 40.5 40.597656 39.800781 C 42.800781 39.300781 44.699219 37.800781 45.097656 35.5 C 45.5 33 46 29.402344 46.097656 24.902344 C 46.097656 20.402344 45.597656 16.800781 45.097656 14.300781 C 44.699219 12.101563 42.800781 10.5 40.597656 10 C 37.097656 9.5 31 9 24.402344 9 Z M 24.402344 11 C 31.601563 11 37.398438 11.597656 40.199219 12.097656 C 41.699219 12.5 42.898438 13.5 43.097656 14.800781 C 43.699219 18 44.097656 21.402344 44.097656 24.902344 C 44 29.199219 43.5 32.699219 43.097656 35.199219 C 42.800781 37.097656 40.800781 37.699219 40.199219 37.902344 C 36.597656 38.601563 30.597656 39.097656 24.597656 39.097656 C 18.597656 39.097656 12.5 38.699219 9 37.902344 C 7.5 37.5 6.300781 36.5 6.101563 35.199219 C 5.300781 32.398438 5 28.699219 5 25 C 5 20.398438 5.402344 17 5.800781 14.902344 C 6.101563 13 8.199219 12.398438 8.699219 12.199219 C 12 11.5 18.101563 11 24.402344 11 Z M 19 17 L 19 33 L 33 25 Z M 21 20.402344 L 29 25 L 21 29.597656 Z"
    ></path>
</symbol>

<symbol id="icon-instagram" viewBox="0 0 50 50">
    <path
         d="M 16 3 C 8.8324839 3 3 8.8324839 3 16 L 3 34 C 3 41.167516 8.8324839 47 16 47 L 34 47 C 41.167516 47 47 41.167516 47 34 L 47 16 C 47 8.8324839 41.167516 3 34 3 L 16 3 z M 16 5 L 34 5 C 40.086484 5 45 9.9135161 45 16 L 45 34 C 45 40.086484 40.086484 45 34 45 L 16 45 C 9.9135161 45 5 40.086484 5 34 L 5 16 C 5 9.9135161 9.9135161 5 16 5 z M 37 11 A 2 2 0 0 0 35 13 A 2 2 0 0 0 37 15 A 2 2 0 0 0 39 13 A 2 2 0 0 0 37 11 z M 25 14 C 18.936712 14 14 18.936712 14 25 C 14 31.063288 18.936712 36 25 36 C 31.063288 36 36 31.063288 36 25 C 36 18.936712 31.063288 14 25 14 z M 25 16 C 29.982407 16 34 20.017593 34 25 C 34 29.982407 29.982407 34 25 34 C 20.017593 34 16 29.982407 16 25 C 16 20.017593 20.017593 16 25 16 z"
    ></path>
</symbol>

<symbol id="icon-xtwitter" viewBox="0 0 50 50">
    <path
         d="M 5.9199219 6 L 20.582031 27.375 L 6.2304688 44 L 9.4101562 44 L 21.986328 29.421875 L 31.986328 44 L 44 44 L 28.681641 21.669922 L 42.199219 6 L 39.029297 6 L 27.275391 19.617188 L 17.933594 6 L 5.9199219 6 z M 9.7167969 8 L 16.880859 8 L 40.203125 42 L 33.039062 42 L 9.7167969 8 z"
    ></path>
</symbol>

<symbol id="icon-bar" viewBox="0 0 30 30">
    <path
         d="M 3 7 A 1.0001 1.0001 0 1 0 3 9 L 27 9 A 1.0001 1.0001 0 1 0 27 7 L 3 7 z M 3 14 A 1.0001 1.0001 0 1 0 3 16 L 27 16 A 1.0001 1.0001 0 1 0 27 14 L 3 14 z M 3 21 A 1.0001 1.0001 0 1 0 3 23 L 27 23 A 1.0001 1.0001 0 1 0 27 21 L 3 21 z"
     ></path>
</symbol>

<symbol id="icon-close" viewBox="0 0 32 32">
    <path
        d="M 7.21875 5.78125 L 5.78125 7.21875 L 14.5625 16 L 5.78125 24.78125 L 7.21875 26.21875 L 16 17.4375 L 24.78125 26.21875 L 26.21875 24.78125 L 17.4375 16 L 26.21875 7.21875 L 24.78125 5.78125 L 16 14.5625 Z"
    ></path>
</symbol>

<symbol id="icon-plus" viewBox="0 0 24 24">
    <path
        fill-rule="evenodd"
        d="M 11 2 L 11 11 L 2 11 L 2 13 L 11 13 L 11 22 L 13 22 L 13 13 L 22 13 L 22 11 L 13 11 L 13 2 Z"
    ></path>
</symbol>

<symbol id="icon-star" viewBox="0 0 24 24">
    <path
        fill-rule="evenodd"
        d="M10.788 3.21c.448-1.077 1.976-1.077 2.424 0l2.082 5.006 5.404.434c1.164.093 1.636 1.545.749 2.305l-4.117 3.527 1.257 5.273c.271 1.136-.964 2.033-1.96 1.425L12 18.354 7.373 21.18c-.996.608-2.231-.29-1.96-1.425l1.257-5.273-4.117-3.527c-.887-.76-.415-2.212.749-2.305l5.404-.434 2.082-5.005Z"
        clip-rule="evenodd"
     />
</symbol>

<symbol id="icon-arrow-right" viewBox="0 0 24 24">
    <path stroke-linecap="round" stroke-linejoin="round" d="M17.25 8.25 21 12m0 0-3.75 3.75M21 12H3" />
</symbol>
</svg>
